<?xml version="1.0" encoding="UTF-8"?>
<!-- Generated by Pixelmator Pro 3.6.17 -->
<svg width="215" height="40" viewBox="0 0 215 40" xmlns="http://www.w3.org/2000/svg">
    <path id="Abgerundetes-Rechteck-Kopie" fill="#1e293b" fill-rule="evenodd" stroke="none" d="M 0 34 C 0 37.313709 2.686291 40 6 40 L 209 40 C 212.313705 40 215 37.313709 215 34 L 215 6 C 215 2.686291 212.313705 0 209 0 L 6 0 C 2.686291 0 0 2.686291 0 6 Z"/>
    <path id="Deploy-via-DeployStack-Kopie" fill="#ffffff" fill-rule="evenodd" stroke="none" d="M 205.701172 25 L 203.349609 25 L 201.56543 21.814453 L 200.758789 22.655273 L 200.758789 25 L 198.844727 25 L 198.844727 14.958008 L 200.758789 14.958008 L 200.758789 20.385742 L 203.185547 17.583008 L 205.598633 17.583008 L 202.994141 20.433594 Z M 197.525391 20.22168 L 195.529297 20.22168 C 195.492859 19.94368 195.399414 19.693039 195.249023 19.469727 C 195.030273 19.168945 194.690735 19.018555 194.230469 19.018555 C 193.574219 19.018555 193.125305 19.344391 192.883789 19.996094 C 192.756165 20.342453 192.692383 20.802734 192.692383 21.376953 C 192.692383 21.923828 192.756165 22.363602 192.883789 22.696289 C 193.116211 23.316086 193.553711 23.625977 194.196289 23.625977 C 194.652039 23.625977 194.975586 23.50293 195.166992 23.256836 C 195.358398 23.010742 195.474609 22.691727 195.515625 22.299805 L 197.504883 22.299805 C 197.45929 22.892258 197.245117 23.452789 196.862305 23.981445 C 196.251617 24.833664 195.347015 25.259766 194.148438 25.259766 C 192.94986 25.259766 192.068054 24.904297 191.50293 24.193359 C 190.937805 23.482422 190.655273 22.55957 190.655273 21.424805 C 190.655273 20.144196 190.967438 19.148438 191.591797 18.4375 C 192.216156 17.726563 193.077454 17.371094 194.175781 17.371094 C 195.110046 17.371094 195.874512 17.580719 196.469238 18 C 197.063965 18.419281 197.416016 19.159821 197.525391 20.22168 Z M 183.573242 18.355469 C 184.088226 17.699219 184.972321 17.371094 186.225586 17.371094 C 187.041351 17.371094 187.76593 17.532883 188.399414 17.856445 C 189.032898 18.180008 189.349609 18.79068 189.349609 19.688477 L 189.349609 23.106445 C 189.349609 23.34343 189.354187 23.630539 189.363281 23.967773 C 189.376953 24.222977 189.41571 24.396164 189.479492 24.487305 C 189.543274 24.578445 189.638977 24.653641 189.766602 24.712891 L 189.766602 25 L 187.647461 25 C 187.588196 24.849609 187.54718 24.708328 187.524414 24.576172 C 187.501648 24.444016 187.483398 24.293625 187.469727 24.125 C 187.200867 24.416672 186.89093 24.665039 186.540039 24.870117 C 186.120789 25.111649 185.64682 25.232422 185.118164 25.232422 C 184.443665 25.232422 183.886536 25.039871 183.446777 24.654785 C 183.007019 24.269699 182.787109 23.723969 182.787109 23.017578 C 182.787109 22.101563 183.140289 21.438477 183.84668 21.02832 C 184.23407 20.805008 184.803711 20.645508 185.555664 20.549805 L 186.21875 20.467773 C 186.578796 20.422195 186.836243 20.365234 186.991211 20.296875 C 187.269226 20.178391 187.408203 19.99382 187.408203 19.743164 C 187.408203 19.43782 187.302246 19.227051 187.090332 19.11084 C 186.878418 18.994629 186.567383 18.936523 186.157227 18.936523 C 185.69696 18.936523 185.371094 19.050461 185.179688 19.27832 C 185.042969 19.446945 184.951843 19.674805 184.90625 19.961914 L 183.026367 19.961914 C 183.067383 19.310211 183.249695 18.77475 183.573242 18.355469 Z M 185.022461 23.591797 C 185.204773 23.742188 185.42804 23.817383 185.692383 23.817383 C 186.111633 23.817383 186.497864 23.694336 186.851074 23.448242 C 187.204285 23.202148 187.387695 22.753265 187.401367 22.101563 L 187.401367 21.376953 C 187.27832 21.454422 187.154114 21.51709 187.028809 21.564941 C 186.903503 21.612793 186.731445 21.657227 186.512695 21.698242 L 186.075195 21.780273 C 185.665039 21.853195 185.371094 21.942062 185.193359 22.046875 C 184.892578 22.224609 184.742188 22.50032 184.742188 22.874023 C 184.742188 23.206711 184.835632 23.445969 185.022461 23.591797 Z M 182.041992 23.612305 L 182.041992 25.068359 L 181.119141 25.102539 C 180.198547 25.134445 179.569641 24.97493 179.232422 24.624023 C 179.013672 24.400711 178.904297 24.056641 178.904297 23.591797 L 178.904297 19.004883 L 177.865234 19.004883 L 177.865234 17.617188 L 178.904297 17.617188 L 178.904297 15.539063 L 180.832031 15.539063 L 180.832031 17.617188 L 182.041992 17.617188 L 182.041992 19.004883 L 180.832031 19.004883 L 180.832031 22.942383 C 180.832031 23.247726 180.870789 23.437988 180.948242 23.513184 C 181.025696 23.588379 181.262695 23.625977 181.65918 23.625977 C 181.718445 23.625977 181.781067 23.624832 181.847168 23.622559 C 181.913269 23.620285 181.97821 23.616867 182.041992 23.612305 Z M 173.107422 23.543945 C 173.604187 23.543945 174.007507 23.489258 174.317383 23.379883 C 174.905273 23.170242 175.199219 22.780609 175.199219 22.210938 C 175.199219 21.87825 175.053406 21.620773 174.761719 21.438477 C 174.470032 21.260742 174.012054 21.103516 173.387695 20.966797 L 172.321289 20.727539 C 171.273102 20.490555 170.548523 20.233078 170.147461 19.955078 C 169.468414 19.490234 169.128906 18.763351 169.128906 17.774414 C 169.128906 16.87207 169.457031 16.122406 170.113281 15.525391 C 170.769531 14.928375 171.733398 14.629883 173.004883 14.629883 C 174.066742 14.629883 174.972473 14.911285 175.722168 15.474121 C 176.471863 16.036957 176.864929 16.853836 176.901367 17.924805 L 174.87793 17.924805 C 174.841492 17.31868 174.577148 16.888016 174.084961 16.632813 C 173.756836 16.464188 173.348938 16.379883 172.861328 16.379883 C 172.319 16.379883 171.886078 16.489258 171.5625 16.708008 C 171.238922 16.926758 171.077148 17.232101 171.077148 17.624023 C 171.077148 17.984055 171.236633 18.25293 171.555664 18.430664 C 171.760742 18.549149 172.198242 18.688156 172.868164 18.847656 L 174.604492 19.264648 C 175.36557 19.446945 175.939758 19.69075 176.327148 19.996094 C 176.928711 20.470062 177.229492 21.155914 177.229492 22.053711 C 177.229492 22.974289 176.877441 23.73877 176.17334 24.347168 C 175.469238 24.955566 174.474609 25.259766 173.189453 25.259766 C 171.876953 25.259766 170.844727 24.960129 170.092773 24.36084 C 169.34082 23.761551 168.964844 22.937836 168.964844 21.889648 L 170.974609 21.889648 C 171.038422 22.34993 171.163727 22.694016 171.350586 22.921875 C 171.692383 23.336594 172.277985 23.543945 173.107422 23.543945 Z M 164.535156 23.044922 L 166.073242 17.548828 L 168.144531 17.548828 L 165.587891 24.876953 C 165.095703 26.289719 164.706055 27.165848 164.418945 27.505371 C 164.131836 27.844894 163.557617 28.014648 162.696289 28.014648 C 162.523102 28.014648 162.384125 28.013504 162.279297 28.01123 C 162.174469 28.008957 162.017242 28.000977 161.807617 27.987305 L 161.807617 26.428711 L 162.053711 26.442383 C 162.245117 26.451492 162.427399 26.444656 162.600586 26.421875 C 162.773773 26.399094 162.919586 26.34668 163.038086 26.264648 C 163.152008 26.18718 163.257965 26.025391 163.355957 25.779297 C 163.453949 25.533203 163.493805 25.382813 163.475586 25.328125 L 160.741211 17.548828 L 162.908203 17.548828 Z M 159.168945 18.492188 C 159.797852 19.280609 160.112305 20.212555 160.112305 21.288086 C 160.112305 22.381836 159.797852 23.317215 159.168945 24.094238 C 158.540039 24.871262 157.585297 25.259766 156.304688 25.259766 C 155.024078 25.259766 154.069336 24.871262 153.44043 24.094238 C 152.811523 23.317215 152.49707 22.381836 152.49707 21.288086 C 152.49707 20.212555 152.811523 19.280609 153.44043 18.492188 C 154.069336 17.703766 155.024078 17.30957 156.304688 17.30957 C 157.585297 17.30957 158.540039 17.703766 159.168945 18.492188 Z M 156.297852 18.957031 C 155.72818 18.957031 155.289551 19.158691 154.981934 19.562012 C 154.674316 19.965332 154.520508 20.54068 154.520508 21.288086 C 154.520508 22.035492 154.674316 22.611984 154.981934 23.017578 C 155.289551 23.423172 155.72818 23.625977 156.297852 23.625977 C 156.867523 23.625977 157.304993 23.423172 157.610352 23.017578 C 157.91571 22.611984 158.068359 22.035492 158.068359 21.288086 C 158.068359 20.54068 157.91571 19.965332 157.610352 19.562012 C 157.304993 19.158691 156.867523 18.957031 156.297852 18.957031 Z M 149.106445 14.923828 L 151.054688 14.923828 L 151.054688 25 L 149.106445 25 Z M 146.754883 18.348633 C 147.356445 18.991211 147.657227 19.93457 147.657227 21.178711 C 147.657227 22.491211 147.362152 23.491531 146.771973 24.179688 C 146.181793 24.867844 145.421875 25.211914 144.492188 25.211914 C 143.899719 25.211914 143.407562 25.063797 143.015625 24.767578 C 142.801422 24.603516 142.591797 24.364258 142.386719 24.049805 L 142.386719 27.932617 L 140.458984 27.932617 L 140.458984 17.548828 L 142.325195 17.548828 L 142.325195 18.649414 C 142.534821 18.325851 142.758148 18.070633 142.995117 17.883789 C 143.42807 17.551102 143.943024 17.384766 144.540039 17.384766 C 145.410492 17.384766 146.148743 17.706055 146.754883 18.348633 Z M 145.647461 21.274414 C 145.647461 20.700195 145.516449 20.192062 145.254395 19.75 C 144.99234 19.307938 144.567383 19.086914 143.979492 19.086914 C 143.273102 19.086914 142.787781 19.421875 142.523438 20.091797 C 142.386719 20.447266 142.318359 20.898438 142.318359 21.445313 C 142.318359 22.311203 142.548492 22.919601 143.008789 23.270508 C 143.282227 23.475586 143.605774 23.578125 143.979492 23.578125 C 144.52182 23.578125 144.935364 23.368484 145.220215 22.949219 C 145.505066 22.529953 145.647461 21.97168 145.647461 21.274414 Z M 139.105469 22.8125 C 139.055328 23.254562 138.825195 23.703445 138.415039 24.15918 C 137.777008 24.883789 136.883789 25.246094 135.735352 25.246094 C 134.787415 25.246094 133.951172 24.940765 133.226563 24.330078 C 132.501953 23.719391 132.139648 22.725922 132.139648 21.349609 C 132.139648 20.059891 132.466614 19.070969 133.120605 18.382813 C 133.774597 17.694656 134.623352 17.350586 135.666992 17.350586 C 136.286804 17.350586 136.845032 17.466797 137.341797 17.699219 C 137.838562 17.931641 138.248688 18.298492 138.572266 18.799805 C 138.863953 19.241867 139.05307 19.754547 139.139648 20.337891 C 139.189789 20.679688 139.210297 21.171875 139.201172 21.814453 L 134.101563 21.814453 C 134.128906 22.561859 134.363586 23.085938 134.805664 23.386719 C 135.074554 23.573563 135.398102 23.666992 135.776367 23.666992 C 136.177429 23.666992 136.503265 23.553055 136.753906 23.325195 C 136.890625 23.202148 137.011383 23.03125 137.116211 22.8125 Z M 137.177734 20.529297 C 137.145844 20.014313 136.989746 19.623535 136.709473 19.356934 C 136.429199 19.090332 136.081726 18.957031 135.666992 18.957031 C 135.21582 18.957031 134.866058 19.098312 134.617676 19.380859 C 134.369293 19.663406 134.213226 20.046219 134.149414 20.529297 Z M 127.115234 25 L 122.774414 25 L 122.774414 14.923828 L 127.115234 14.923828 C 127.739594 14.932938 128.259094 15.005859 128.673828 15.142578 C 129.380219 15.375 129.952148 15.801102 130.389648 16.420898 C 130.74057 16.922211 130.979828 17.464508 131.107422 18.047852 C 131.235016 18.631195 131.298828 19.187164 131.298828 19.71582 C 131.298828 21.055664 131.029968 22.19043 130.492188 23.120117 C 129.763 24.373383 128.63739 25 127.115234 25 Z M 128.680664 17.494141 C 128.357086 16.947266 127.716797 16.673828 126.759766 16.673828 L 124.818359 16.673828 L 124.818359 23.25 L 126.759766 23.25 C 127.753265 23.25 128.445953 22.760101 128.837891 21.780273 C 129.052094 21.242508 129.15918 20.602219 129.15918 19.859375 C 129.15918 18.833984 128.999695 18.045578 128.680664 17.494141 Z M 110.326172 18.355469 C 110.841156 17.699219 111.72525 17.371094 112.978516 17.371094 C 113.794281 17.371094 114.51886 17.532883 115.152344 17.856445 C 115.785828 18.180008 116.102539 18.79068 116.102539 19.688477 L 116.102539 23.106445 C 116.102539 23.34343 116.107086 23.630539 116.116211 23.967773 C 116.129883 24.222977 116.16861 24.396164 116.232422 24.487305 C 116.296234 24.578445 116.391937 24.653641 116.519531 24.712891 L 116.519531 25 L 114.400391 25 C 114.341156 24.849609 114.30014 24.708328 114.277344 24.576172 C 114.254547 24.444016 114.236328 24.293625 114.222656 24.125 C 113.953766 24.416672 113.64389 24.665039 113.292969 24.870117 C 112.873688 25.111649 112.39975 25.232422 111.871094 25.232422 C 111.196594 25.232422 110.639496 25.039871 110.199707 24.654785 C 109.759918 24.269699 109.540039 23.723969 109.540039 23.017578 C 109.540039 22.101563 109.893219 21.438477 110.599609 21.02832 C 110.987 20.805008 111.556641 20.645508 112.308594 20.549805 L 112.97168 20.467773 C 113.331726 20.422195 113.589203 20.365234 113.744141 20.296875 C 114.022156 20.178391 114.161133 19.99382 114.161133 19.743164 C 114.161133 19.43782 114.055176 19.227051 113.843262 19.11084 C 113.631348 18.994629 113.320313 18.936523 112.910156 18.936523 C 112.44986 18.936523 112.124023 19.050461 111.932617 19.27832 C 111.795898 19.446945 111.704742 19.674805 111.65918 19.961914 L 109.779297 19.961914 C 109.820313 19.310211 110.002594 18.77475 110.326172 18.355469 Z M 111.775391 23.591797 C 111.957672 23.742188 112.180969 23.817383 112.445313 23.817383 C 112.864594 23.817383 113.250793 23.694336 113.604004 23.448242 C 113.957214 23.202148 114.140625 22.753265 114.154297 22.101563 L 114.154297 21.376953 C 114.03125 21.454422 113.907074 21.51709 113.781738 21.564941 C 113.656403 21.612793 113.484375 21.657227 113.265625 21.698242 L 112.828125 21.780273 C 112.417969 21.853195 112.124023 21.942062 111.946289 22.046875 C 111.645508 22.224609 111.495117 22.50032 111.495117 22.874023 C 111.495117 23.206711 111.588531 23.445969 111.775391 23.591797 Z M 108.15918 17.548828 L 108.15918 25 L 106.183594 25 L 106.183594 17.548828 Z M 108.15918 14.862305 L 108.15918 16.660156 L 106.183594 16.660156 L 106.183594 14.862305 Z M 97.638672 17.548828 L 99.826172 17.548828 L 101.37793 23.044922 L 102.963867 17.548828 L 105.055664 17.548828 L 102.369141 25 L 100.311523 25 Z M 88.827148 23.044922 L 90.365234 17.548828 L 92.436523 17.548828 L 89.879883 24.876953 C 89.387695 26.289719 88.998047 27.165848 88.710938 27.505371 C 88.423828 27.844894 87.849609 28.014648 86.988281 28.014648 C 86.815094 28.014648 86.676102 28.013504 86.571289 28.01123 C 86.466476 28.008957 86.30925 28.000977 86.099609 27.987305 L 86.099609 26.428711 L 86.345703 26.442383 C 86.537109 26.451492 86.719391 26.444656 86.892578 26.421875 C 87.065765 26.399094 87.211594 26.34668 87.330078 26.264648 C 87.444016 26.18718 87.549973 26.025391 87.647949 25.779297 C 87.745926 25.533203 87.785812 25.382813 87.767578 25.328125 L 85.033203 17.548828 L 87.200195 17.548828 Z M 83.460938 18.492188 C 84.089844 19.280609 84.404297 20.212555 84.404297 21.288086 C 84.404297 22.381836 84.089844 23.317215 83.460938 24.094238 C 82.832031 24.871262 81.877289 25.259766 80.59668 25.259766 C 79.316071 25.259766 78.361328 24.871262 77.732422 24.094238 C 77.103516 23.317215 76.789063 22.381836 76.789063 21.288086 C 76.789063 20.212555 77.103516 19.280609 77.732422 18.492188 C 78.361328 17.703766 79.316071 17.30957 80.59668 17.30957 C 81.877289 17.30957 82.832031 17.703766 83.460938 18.492188 Z M 80.589844 18.957031 C 80.020172 18.957031 79.581543 19.158691 79.273926 19.562012 C 78.966309 19.965332 78.8125 20.54068 78.8125 21.288086 C 78.8125 22.035492 78.966309 22.611984 79.273926 23.017578 C 79.581543 23.423172 80.020172 23.625977 80.589844 23.625977 C 81.159515 23.625977 81.597 23.423172 81.902344 23.017578 C 82.207687 22.611984 82.360352 22.035492 82.360352 21.288086 C 82.360352 20.54068 82.207687 19.965332 81.902344 19.562012 C 81.597 19.158691 81.159515 18.957031 80.589844 18.957031 Z M 73.398438 14.923828 L 75.34668 14.923828 L 75.34668 25 L 73.398438 25 Z M 71.046875 18.348633 C 71.648438 18.991211 71.949219 19.93457 71.949219 21.178711 C 71.949219 22.491211 71.654144 23.491531 71.063965 24.179688 C 70.473785 24.867844 69.713867 25.211914 68.78418 25.211914 C 68.191727 25.211914 67.699554 25.063797 67.307617 24.767578 C 67.09343 24.603516 66.883789 24.364258 66.678711 24.049805 L 66.678711 27.932617 L 64.750977 27.932617 L 64.750977 17.548828 L 66.617188 17.548828 L 66.617188 18.649414 C 66.826828 18.325851 67.050125 18.070633 67.287109 17.883789 C 67.720062 17.551102 68.235016 17.384766 68.832031 17.384766 C 69.702484 17.384766 70.44075 17.706055 71.046875 18.348633 Z M 69.939453 21.274414 C 69.939453 20.700195 69.808426 20.192062 69.546387 19.75 C 69.284348 19.307938 68.859375 19.086914 68.271484 19.086914 C 67.565094 19.086914 67.079758 19.421875 66.81543 20.091797 C 66.678711 20.447266 66.610352 20.898438 66.610352 21.445313 C 66.610352 22.311203 66.840485 22.919601 67.300781 23.270508 C 67.574219 23.475586 67.897781 23.578125 68.271484 23.578125 C 68.813812 23.578125 69.227371 23.368484 69.512207 22.949219 C 69.797043 22.529953 69.939453 21.97168 69.939453 21.274414 Z M 63.397461 22.8125 C 63.347336 23.254562 63.117188 23.703445 62.707031 24.15918 C 62.069 24.883789 61.175781 25.246094 60.027344 25.246094 C 59.079422 25.246094 58.243164 24.940765 57.518555 24.330078 C 56.793945 23.719391 56.431641 22.725922 56.431641 21.349609 C 56.431641 20.059891 56.758621 19.070969 57.412598 18.382813 C 58.066574 17.694656 58.915359 17.350586 59.958984 17.350586 C 60.578781 17.350586 61.137039 17.466797 61.633789 17.699219 C 62.130539 17.931641 62.54068 18.298492 62.864258 18.799805 C 63.15593 19.241867 63.345047 19.754547 63.431641 20.337891 C 63.481766 20.679688 63.502274 21.171875 63.493164 21.814453 L 58.393555 21.814453 C 58.420898 22.561859 58.655594 23.085938 59.097656 23.386719 C 59.366531 23.573563 59.690109 23.666992 60.068359 23.666992 C 60.469406 23.666992 60.795242 23.553055 61.045898 23.325195 C 61.182617 23.202148 61.303391 23.03125 61.408203 22.8125 Z M 61.469727 20.529297 C 61.43782 20.014313 61.281738 19.623535 61.001465 19.356934 C 60.721191 19.090332 60.373703 18.957031 59.958984 18.957031 C 59.507813 18.957031 59.158035 19.098312 58.909668 19.380859 C 58.661301 19.663406 58.505203 20.046219 58.441406 20.529297 Z M 51.407227 25 L 47.066406 25 L 47.066406 14.923828 L 51.407227 14.923828 C 52.031586 14.932938 52.551102 15.005859 52.96582 15.142578 C 53.672211 15.375 54.244141 15.801102 54.681641 16.420898 C 55.032547 16.922211 55.271805 17.464508 55.399414 18.047852 C 55.527023 18.631195 55.59082 19.187164 55.59082 19.71582 C 55.59082 21.055664 55.321945 22.19043 54.78418 23.120117 C 54.055008 24.373383 52.929367 25 51.407227 25 Z M 52.972656 17.494141 C 52.649094 16.947266 52.008789 16.673828 51.051758 16.673828 L 49.110352 16.673828 L 49.110352 23.25 L 51.051758 23.25 C 52.045258 23.25 52.737961 22.760101 53.129883 21.780273 C 53.34407 21.242508 53.451172 20.602219 53.451172 19.859375 C 53.451172 18.833984 53.291672 18.045578 52.972656 17.494141 Z"/>
    <g id="Gruppe-Kopie">
        <linearGradient id="linearGradient1" x1="11" y1="6.219317" x2="34.753042" y2="6.219317" gradientUnits="userSpaceOnUse">
            <stop offset="0" stop-color="#ef476f" stop-opacity="1"/>
            <stop offset="1" stop-color="#ffbc42" stop-opacity="1"/>
        </linearGradient>
        <path id="Pfad" fill="url(#linearGradient1)" stroke="none" d="M 34.753036 23.788334 L 32.687706 23.788334 L 32.687706 16.036625 C 32.687706 14.933506 32.0942 13.905407 31.138718 13.353851 L 24.425451 9.47813 C 23.470104 8.9263 22.283075 8.926565 21.327457 9.477856 L 14.614327 13.353851 C 13.658842 13.905407 13.06533 14.933506 13.06533 16.036625 L 13.06533 23.788334 L 11 23.788334 L 11 16.036625 C 11 14.197998 11.989233 12.484419 13.581662 11.564968 L 20.294792 7.689247 C 21.887487 6.770069 23.865957 6.770336 25.458117 7.689522 L 32.171375 11.564968 C 33.763809 12.484419 34.753036 14.197998 34.753036 16.036625 L 34.753036 23.788334 Z"/>
        <path id="path1" fill="#3a86ff" stroke="none" d="M 33.720371 23.191509 C 33.278812 23.191509 32.894192 23.431902 32.687706 23.788334 C 32.894192 24.144772 33.278812 24.385159 33.720371 24.385159 C 34.161949 24.385159 34.54657 24.144772 34.753036 23.788334 C 34.54657 23.431902 34.161949 23.191509 33.720371 23.191509 Z"/>
        <linearGradient id="linearGradient2" x1="13.439162" y1="23.237582" x2="32.757054" y2="23.237582" gradientUnits="userSpaceOnUse">
            <stop offset="0" stop-color="#2ec4b6" stop-opacity="1"/>
            <stop offset="1" stop-color="#3a86ff" stop-opacity="1"/>
        </linearGradient>
        <path id="path2" fill="url(#linearGradient2)" stroke="none" d="M 22.876587 32.8255 C 21.983631 32.8255 21.091074 32.59557 20.294792 32.135712 L 13.581662 28.260258 L 14.614327 26.471382 L 21.327457 30.347103 C 22.283075 30.898933 23.470104 30.898666 24.425451 30.34737 L 31.138718 26.471382 C 32.0942 25.919819 32.687706 24.891727 32.687706 23.788334 L 34.753036 23.788334 C 34.753036 25.627235 33.763809 27.340813 32.171375 28.259991 L 25.458117 32.135979 C 24.662106 32.59557 23.769144 32.8255 22.876587 32.8255 Z"/>
        <path id="path3" fill="#a83bed" stroke="none" d="M 13.577342 27.067535 C 13.356558 27.449945 13.372431 27.903229 13.577875 28.260258 C 13.989799 28.259666 14.390287 28.046768 14.611073 27.66436 C 14.831857 27.281944 14.815988 26.828659 14.610539 26.471634 C 14.198619 26.472229 13.798127 26.685127 13.577342 27.067535 Z"/>
        <linearGradient id="linearGradient3" x1="14.588481" y1="12.285686" x2="32.349832" y2="12.285686" gradientUnits="userSpaceOnUse">
            <stop offset="0" stop-color="#a83bed" stop-opacity="1"/>
            <stop offset="0.6" stop-color="#ef476f" stop-opacity="1"/>
            <stop offset="1" stop-color="#ffbc42" stop-opacity="1"/>
        </linearGradient>
        <path id="path4" fill="url(#linearGradient3)" stroke="none" d="M 13.581662 28.260258 C 11.989233 27.340813 11 25.627235 11 23.788334 C 11 21.116587 13.173571 18.94315 15.845187 18.94315 C 16.18457 18.94315 16.519243 18.97784 16.846388 19.046682 C 17.248966 15.547457 20.214249 12.836437 23.800879 12.836437 C 27.66127 12.836437 30.801891 15.976925 30.801891 19.837317 L 28.736557 19.837317 C 28.736557 17.115816 26.522379 14.901768 23.800879 14.901768 C 21.079374 14.901768 18.865196 17.115816 18.865196 19.837317 C 18.866943 20.336973 18.63056 20.787151 18.233091 21.057693 C 17.833471 21.32984 17.32494 21.384434 16.872746 21.20425 C 16.546541 21.07436 16.20084 21.00848 15.845187 21.00848 C 14.312325 21.00848 13.06533 22.25547 13.06533 23.788334 C 13.06533 24.891727 13.658842 25.919819 14.614327 26.471649 L 13.581662 28.260258 Z M 16.799866 19.856413 C 16.799866 19.857752 16.799866 19.859365 16.799866 19.860979 C 16.799866 19.859365 16.799866 19.857752 16.799866 19.856413 Z"/>
        <linearGradient id="linearGradient4" x1="14.519821" y1="18.253898" x2="32.360428" y2="18.253898" gradientUnits="userSpaceOnUse">
            <stop offset="0" stop-color="#a83bed" stop-opacity="1"/>
            <stop offset="1" stop-color="#3a86ff" stop-opacity="1"/>
        </linearGradient>
        <path id="path5" fill="url(#linearGradient4)" stroke="none" d="M 16.813046 29.202839 C 15.806462 29.202839 14.732653 28.924503 13.581662 28.260258 L 14.614327 26.471382 C 17.589424 28.188995 19.67721 26.377531 22.761761 23.19025 C 24.848198 21.034021 27.005634 18.804651 29.769356 18.804651 C 32.517349 18.804651 34.753036 21.040211 34.753036 23.788334 L 32.687706 23.788334 C 32.687706 22.179102 31.378595 20.869982 29.769356 20.869982 C 27.88098 20.869982 26.115231 22.694628 24.245811 24.626301 C 22.217457 26.722553 19.816914 29.202839 16.813046 29.202839 Z"/>
    </g>
</svg>
